<?xml version="1.0" encoding="UTF-8"?>
<svg xmlns="http://www.w3.org/2000/svg" viewBox="0 0 500 500">
  <path style="fill:#5d995d;"
    d="M93.35,390.765c-2.819-1.483-5.033-3.603-6.644-6.358-1.611-2.755-2.415-5.997-2.415-9.726,0-3.688.815-6.907,2.448-9.663,1.631-2.755,3.857-4.874,6.675-6.358,2.818-1.482,6.009-2.225,9.568-2.225s6.749.743,9.568,2.225c2.818,1.484,5.043,3.604,6.675,6.358,1.631,2.756,2.448,5.975,2.448,9.663s-.817,6.92-2.448,9.695c-1.633,2.776-3.869,4.905-6.707,6.39-2.841,1.483-6.04,2.225-9.6,2.225s-6.75-.742-9.567-2.225h0ZM107.272,380.242c1.165-1.292,1.748-3.146,1.748-5.562s-.583-4.26-1.748-5.531c-1.166-1.272-2.596-1.907-4.292-1.907s-3.115.635-4.259,1.907c-1.145,1.271-1.717,3.115-1.717,5.531,0,2.457.55,4.323,1.652,5.594,1.102,1.272,2.521,1.907,4.259,1.907s3.189-.646,4.355-1.94h.001Z" />
  <path style="fill:#5d995d;"
    d="M143.35,357.896c1.78-.975,3.878-1.463,6.294-1.463,2.838,0,5.414.743,7.724,2.225,2.31,1.484,4.132,3.604,5.468,6.358,1.335,2.756,2.002,5.975,2.002,9.663s-.667,6.92-2.002,9.695c-1.336,2.776-3.158,4.905-5.468,6.39-2.31,1.484-4.886,2.225-7.724,2.225-2.415,0-4.504-.487-6.263-1.463-1.759-.974-3.147-2.288-4.165-3.942v21.997h-12.46v-52.703h12.46v4.959c.975-1.652,2.353-2.967,4.132-3.942h.001ZM150.311,369.244c-1.251-1.292-2.788-1.94-4.609-1.94s-3.359.659-4.61,1.971c-1.25,1.314-1.875,3.115-1.875,5.404,0,2.33.625,4.154,1.875,5.467,1.25,1.314,2.787,1.971,4.61,1.971s3.358-.668,4.609-2.003c1.25-1.335,1.875-3.147,1.875-5.435,0-2.33-.625-4.142-1.875-5.436h0Z" />
  <path style="fill:#5d995d;"
    d="M189.473,357.896c1.801.975,3.188,2.288,4.164,3.942v-4.959h12.46v35.284c0,3.348-.635,6.368-1.907,9.06-1.271,2.691-3.253,4.842-5.944,6.453-2.692,1.609-6.094,2.415-10.203,2.415-5.51,0-9.918-1.294-13.224-3.878-3.305-2.586-5.193-6.103-5.658-10.553h12.27c.255,1.145.89,2.034,1.907,2.671,1.017.635,2.33.954,3.942.954,4.238,0,6.357-2.373,6.357-7.12v-4.577c-.975,1.652-2.363,2.968-4.164,3.942-1.802.976-3.911,1.463-6.326,1.463-2.84,0-5.414-.742-7.724-2.225-2.311-1.483-4.132-3.613-5.467-6.39-1.336-2.776-2.003-6.009-2.003-9.695s.667-6.907,2.003-9.663c1.335-2.755,3.156-4.874,5.467-6.358,2.31-1.482,4.885-2.225,7.724-2.225,2.415,0,4.524.488,6.326,1.463v-.002ZM191.761,369.276c-1.25-1.313-2.788-1.971-4.609-1.971-1.865,0-3.412.647-4.64,1.94-1.23,1.294-1.844,3.105-1.844,5.436,0,2.288.614,4.1,1.844,5.435,1.229,1.335,2.776,2.003,4.64,2.003,1.821,0,3.359-.658,4.609-1.971,1.25-1.313,1.875-3.137,1.875-5.467,0-2.288-.625-4.09-1.875-5.404h0Z" />
  <path style="fill:#5d995d;"
    d="M247.102,377.223h-23.586c.127,1.95.667,3.401,1.621,4.355.954.954,2.172,1.429,3.655,1.429,2.076,0,3.561-.931,4.45-2.796h13.288c-.551,2.457-1.621,4.652-3.211,6.58-1.59,1.928-3.592,3.443-6.007,4.545-2.415,1.103-5.086,1.653-8.011,1.653-3.518,0-6.644-.742-9.377-2.225-2.734-1.483-4.875-3.603-6.421-6.358-1.548-2.755-2.321-5.997-2.321-9.726s.763-6.962,2.288-9.695,3.655-4.842,6.39-6.326c2.734-1.482,5.88-2.225,9.44-2.225,3.518,0,6.633.721,9.345,2.163,2.711,1.44,4.832,3.507,6.357,6.198,1.526,2.691,2.288,5.86,2.288,9.505,0,.975-.064,1.95-.191,2.925h0ZM234.578,371.183c0-1.525-.508-2.722-1.525-3.592-1.018-.869-2.288-1.304-3.815-1.304s-2.776.413-3.751,1.24-1.61,2.045-1.907,3.655h10.999Z" />
  <path style="fill:#5d995d;"
    d="M269.927,358.342c1.991-1.186,4.132-1.779,6.421-1.779v13.287h-3.497c-2.713,0-4.726.531-6.04,1.589-1.314,1.06-1.971,2.904-1.971,5.531v15.576h-12.46v-35.665h12.46v6.294c1.398-2.034,3.094-3.645,5.086-4.832h.001Z" />
  <path style="fill:#5d995d;"
    d="M317.288,356.88v35.665h-12.524v-5.085c-1.06,1.61-2.523,2.914-4.387,3.909-1.865.996-4.005,1.494-6.421,1.494-4.154,0-7.428-1.367-9.822-4.1-2.395-2.734-3.592-6.453-3.592-11.157v-20.725h12.397v19.135c0,2.034.54,3.635,1.621,4.8,1.08,1.166,2.511,1.748,4.292,1.748,1.821,0,3.263-.582,4.323-1.748,1.059-1.165,1.59-2.765,1.59-4.8v-19.135h12.524Z" />
  <path style="fill:#5d995d;" d="M336.868,356.88v35.665h-12.46v-35.665h12.46Z" />
  <path style="fill:#5d995d;"
    d="M401.174,360.63c2.565,2.713,3.846,6.421,3.846,11.126v20.789h-12.46v-19.135c0-1.907-.531-3.39-1.59-4.45-1.059-1.059-2.5-1.59-4.323-1.59s-3.264.531-4.323,1.59c-1.059,1.06-1.589,2.542-1.589,4.45v19.135h-12.46v-19.135c0-1.907-.52-3.39-1.558-4.45-1.039-1.059-2.469-1.59-4.292-1.59-1.866,0-3.328.531-4.387,1.59-1.059,1.059-1.59,2.542-1.59,4.45v19.135h-12.46v-35.665h12.46v4.704c1.102-1.525,2.533-2.744,4.292-3.654s3.784-1.367,6.072-1.367c2.628,0,4.969.572,7.026,1.717,2.055,1.144,3.676,2.756,4.863,4.832,1.272-1.949,2.945-3.528,5.022-4.736,2.076-1.208,4.365-1.812,6.866-1.812,4.492,0,8.02,1.356,10.584,4.069v-.002Z" />
  <path style="fill:#5d995d;"
    d="M411.791,365.017c1.335-2.755,3.167-4.874,5.499-6.358,2.33-1.482,4.916-2.225,7.755-2.225,2.288,0,4.334.478,6.134,1.431,1.801.953,3.211,2.257,4.228,3.909v-16.274h12.524v47.044h-12.524v-4.959c-.976,1.652-2.353,2.968-4.132,3.942-1.78.976-3.878,1.463-6.294,1.463-2.84,0-5.414-.742-7.724-2.225-2.311-1.483-4.132-3.613-5.467-6.39-1.336-2.776-2.003-6.009-2.003-9.695s.667-6.907,2.003-9.663h0ZM433.595,369.276c-1.25-1.313-2.788-1.971-4.609-1.971-1.865,0-3.412.647-4.64,1.94-1.23,1.294-1.844,3.105-1.844,5.436,0,2.288.614,4.1,1.844,5.435,1.229,1.335,2.776,2.003,4.64,2.003,1.821,0,3.359-.658,4.609-1.971,1.25-1.313,1.875-3.137,1.875-5.467,0-2.288-.625-4.09-1.875-5.404h0Z" />
  <path style="fill:#5d995d;"
    d="M284.418,413.462l-9.091,35.666h-13.987l-4.959-21.615-5.151,21.615h-13.922l-9.028-35.666h12.398l4.004,23.651,5.278-23.651h13.35l5.468,23.713,3.942-23.713h11.698Z" />
  <path style="fill:#5d995d;"
    d="M295.005,447.347c-2.819-1.482-5.033-3.602-6.644-6.357-1.611-2.755-2.415-5.997-2.415-9.727,0-3.687.815-6.907,2.448-9.663,1.631-2.755,3.857-4.873,6.675-6.357,2.818-1.482,6.009-2.225,9.568-2.225s6.749.743,9.568,2.225c2.818,1.484,5.043,3.603,6.675,6.357,1.631,2.756,2.448,5.976,2.448,9.663s-.817,6.92-2.448,9.695c-1.633,2.776-3.869,4.906-6.707,6.39-2.841,1.484-6.04,2.225-9.6,2.225s-6.75-.741-9.567-2.225ZM308.927,436.825c1.165-1.292,1.748-3.147,1.748-5.563s-.583-4.259-1.748-5.531c-1.166-1.271-2.596-1.907-4.292-1.907s-3.115.636-4.259,1.907c-1.145,1.272-1.717,3.115-1.717,5.531,0,2.459.55,4.323,1.652,5.595,1.102,1.272,2.521,1.907,4.259,1.907s3.189-.646,4.355-1.94h.001Z" />
  <path style="fill:#5d995d;"
    d="M361.534,417.245c2.415,2.734,3.624,6.432,3.624,11.093v20.79h-12.46v-19.135c0-2.034-.531-3.634-1.59-4.8-1.06-1.166-2.48-1.748-4.259-1.748-1.866,0-3.328.582-4.387,1.748-1.06,1.166-1.59,2.765-1.59,4.8v19.135h-12.46v-35.666h12.46v5.086c1.102-1.61,2.584-2.914,4.451-3.909,1.864-.996,4.004-1.495,6.421-1.495,4.111,0,7.376,1.367,9.791,4.101h0Z" />
  <path style="fill:#5d995d;"
    d="M405.908,433.806h-23.586c.127,1.949.667,3.401,1.621,4.354s2.172,1.431,3.655,1.431c2.076,0,3.561-.931,4.45-2.798h13.288c-.551,2.459-1.621,4.652-3.211,6.58-1.59,1.929-3.592,3.443-6.007,4.546-2.415,1.103-5.086,1.652-8.011,1.652-3.518,0-6.644-.741-9.377-2.225-2.734-1.482-4.875-3.602-6.421-6.357-1.548-2.755-2.321-5.997-2.321-9.727s.763-6.961,2.288-9.694c1.525-2.734,3.655-4.842,6.39-6.326,2.734-1.482,5.88-2.225,9.44-2.225,3.518,0,6.633.721,9.345,2.163,2.711,1.44,4.832,3.507,6.357,6.198,1.526,2.691,2.288,5.86,2.288,9.505,0,.975-.063,1.949-.191,2.925h0ZM393.385,427.766c0-1.526-.508-2.723-1.525-3.593-1.018-.868-2.288-1.302-3.815-1.302s-2.776.413-3.751,1.24c-.975.827-1.61,2.045-1.907,3.655h10.999Z" />
  <path style="fill:#5d995d;"
    d="M444.308,417.245c2.415,2.734,3.624,6.432,3.624,11.093v20.79h-12.46v-19.135c0-2.034-.531-3.634-1.59-4.8-1.06-1.166-2.48-1.748-4.259-1.748-1.866,0-3.328.582-4.387,1.748-1.06,1.166-1.59,2.765-1.59,4.8v19.135h-12.46v-35.666h12.46v5.086c1.102-1.61,2.584-2.914,4.451-3.909,1.864-.996,4.004-1.495,6.421-1.495,4.111,0,7.376,1.367,9.791,4.101h0Z" />
  <path style="fill:none; stroke:#3a443a; stroke-miterlimit:10; stroke-width:11.7px;"
    d="M139.769,50.428h-27.353c-3.359,0-6.093,2.701-6.134,6.06l-1.049,86.266,40.671-24.674v-61.518c0-3.388-2.747-6.135-6.135-6.135Z" />
  <path style="fill:none; stroke:#3a443a; stroke-miterlimit:10; stroke-width:11.7px;"
    d="M213.127,442.832H82.271c-12.949,0-23.445-10.497-23.445-23.445v-201.114l181.211-116.141c7.149-4.582,16.319-4.548,23.434.086l178.171,116.055v104.297" />
  <path style="fill:none; stroke:#3a443a; stroke-miterlimit:10; stroke-width:11.7px;"
    d="M481.791,199.985L266.762,59.921c-9.021-5.876-20.648-5.919-29.713-.11L18.32,199.999c-5.185,3.323-8.32,9.057-8.32,15.215v.205c0,14.287,15.796,22.925,27.824,15.215l199.225-127.687c9.064-5.809,20.692-5.766,29.713.11l195.302,127.214c12.022,7.831,27.936-.796,27.936-15.143h0c0-6.111-3.088-11.808-8.209-15.143Z" />
  <path style="fill:#5d995d;"
    d="M330.343,345.5c-.275,0-.791-.046-1.158-.353-7.048-5.898-10.906-12.649-11.794-20.638-.312-2.807.084-5.58,1.176-8.242,1.13-2.751,3.169-4.328,5.595-4.328,1.371,0,2.774.488,4.17,1.45,2.495,1.718,3.926,4.24,4.894,6.244l.424.88.344-.422c.456-.558.853-1.021,1.305-1.459,1.029-.997,2.183-2.01,3.743-3.284.509-.416,1.163-.643,1.689-.827.844-.292,1.661-.441,2.432-.441,2.847,0,4.871,2.025,5.281,5.286.531,4.234-.417,8.416-2.899,12.786-3.138,5.525-7.815,9.827-14.298,13.154-.311.16-.665.194-.906.194h0Z" />
</svg>